<svg width="32" height="32" viewBox="0 0 32 32" fill="none" xmlns="http://www.w3.org/2000/svg">
<g clip-path="url(#clip0_2_239)">
<path d="M18.0505 24.5549C16.5762 24.9078 15.0357 24.8783 13.576 24.4688C12.1163 24.0595 10.7863 23.284 9.71263 22.2164C8.29122 20.8632 7.3775 19.0655 7.1236 17.1224C6.86969 15.1794 7.29089 13.2083 8.31712 11.5372C8.99106 10.4478 9.803 9.44963 10.7329 8.56725C13.6842 5.63633 19.102 0.304534 19.102 0.304534C15.0744 -0.491721 10.8938 0.287223 7.42642 2.48002C3.95898 4.67281 1.47035 8.11142 0.476016 12.0836C-0.518319 16.0558 0.0578454 20.2571 2.08515 23.8172C4.11248 27.3774 7.43559 30.0238 11.3662 31.2079L18.0505 24.5549Z" fill="#FFFFFF"/>
<path d="M13.9343 7.32399C15.4087 6.97063 16.9493 7.00006 18.409 7.40946C19.8688 7.81886 21.1989 8.59457 22.2723 9.6625C25.1962 12.5778 25.7669 16.9041 23.656 20.3261C22.9809 21.4157 22.1691 22.4152 21.2402 23.2999C18.289 26.2269 12.8711 31.5626 12.8711 31.5626C16.9024 32.3667 21.0895 31.592 24.563 29.3992C28.0365 27.2062 30.5296 23.7639 31.5245 19.7866C32.5196 15.8094 31.94 11.6027 29.9063 8.04031C27.8726 4.47784 24.5409 1.83316 20.6031 0.65535L13.9343 7.32399Z" fill="#FFFFFF"/>
</g>
<defs>
<clipPath id="clip0_2_239">
<rect width="32" height="32" fill="#000000"/>
</clipPath>
</defs>
</svg>
