<svg width="760" height="760" viewBox="0 0 760 760" fill="none" xmlns="http://www.w3.org/2000/svg">
<circle cx="380" cy="380" r="380" fill="black"/>
<path d="M374.766 166.163C377.011 163.946 380.04 162.703 383.195 162.703L544.416 162.703C555.15 162.703 560.484 175.719 552.837 183.252L306.096 426.315C301.376 430.964 293.781 430.909 289.129 426.19L209.862 345.786C205.211 341.069 205.263 333.475 209.978 328.821L374.766 166.163Z" fill="#83E247"/>
<path d="M384.93 593.262C382.684 595.478 379.655 596.721 376.5 596.721L215.28 596.722C204.545 596.722 199.211 583.706 206.858 576.173L453.599 333.11C458.32 328.461 465.915 328.516 470.566 333.234L549.833 413.638C554.484 418.356 554.432 425.95 549.718 430.603L384.93 593.262Z" fill="#83E247"/>
</svg>
