<svg width="1346" height="374" viewBox="0 0 1346 374" fill="none" xmlns="http://www.w3.org/2000/svg">
<path d="M393.487 294.107C378.838 294.107 365.594 291.599 353.755 286.582C342.116 281.565 332.885 274.341 326.063 264.91C319.24 255.479 315.728 244.342 315.528 231.499H360.678C361.28 240.128 364.29 246.95 369.708 251.967C375.326 256.984 382.952 259.492 392.584 259.492C402.416 259.492 410.142 257.184 415.761 252.569C421.379 247.753 424.189 241.532 424.189 233.907C424.189 227.686 422.282 222.569 418.47 218.556C414.657 214.543 409.841 211.432 404.022 209.225C398.403 206.817 390.577 204.208 380.544 201.399C366.898 197.386 355.761 193.473 347.133 189.66C338.705 185.647 331.38 179.727 325.16 171.901C319.14 163.874 316.13 153.239 316.13 139.995C316.13 127.554 319.24 116.718 325.461 107.487C331.681 98.2563 340.41 91.233 351.648 86.417C362.885 81.4003 375.728 78.892 390.176 78.892C411.848 78.892 429.406 84.2097 442.851 94.845C456.496 105.28 464.021 119.928 465.426 138.791H419.072C418.67 131.567 415.56 125.647 409.741 121.032C404.122 116.216 396.597 113.808 387.166 113.808C378.938 113.808 372.316 115.915 367.3 120.129C362.484 124.343 360.076 130.463 360.076 138.49C360.076 144.109 361.882 148.824 365.494 152.637C369.306 156.249 373.922 159.259 379.34 161.667C384.958 163.874 392.784 166.483 402.818 169.493C416.463 173.506 427.6 177.52 436.229 181.533C444.857 185.546 452.282 191.566 458.503 199.593C464.723 207.62 467.834 218.155 467.834 231.198C467.834 242.435 464.924 252.87 459.105 262.502C453.285 272.134 444.757 279.86 433.52 285.679C422.282 291.298 408.938 294.107 393.487 294.107ZM601.892 294.107C582.226 294.107 564.166 289.492 547.712 280.261C531.257 271.03 518.214 258.288 508.582 242.034C498.95 225.579 494.134 207.018 494.134 186.349C494.134 165.881 498.95 147.52 508.582 131.266C518.214 114.811 531.257 101.969 547.712 92.738C564.166 83.5073 582.226 78.892 601.892 78.892C621.758 78.892 639.818 83.5073 656.072 92.738C672.526 101.969 685.469 114.811 694.901 131.266C704.533 147.52 709.349 165.881 709.349 186.349C709.349 207.018 704.533 225.579 694.901 242.034C685.469 258.288 672.526 271.03 656.072 280.261C639.617 289.492 621.557 294.107 601.892 294.107ZM601.892 256.482C614.534 256.482 625.671 253.673 635.303 248.054C644.935 242.235 652.46 234.007 657.878 223.372C663.296 212.737 666.005 200.396 666.005 186.349C666.005 172.302 663.296 160.062 657.878 149.627C652.46 138.992 644.935 130.865 635.303 125.246C625.671 119.627 614.534 116.818 601.892 116.818C589.25 116.818 578.012 119.627 568.18 125.246C558.548 130.865 551.023 138.992 545.605 149.627C540.187 160.062 537.478 172.302 537.478 186.349C537.478 200.396 540.187 212.737 545.605 223.372C551.023 234.007 558.548 242.235 568.18 248.054C578.012 253.673 589.25 256.482 601.892 256.482ZM920.397 292H878.257L782.84 147.821V292H740.7V81.601H782.84L878.257 226.081V81.601H920.397V292ZM1004.18 115.915V168.59H1074.92V202.001H1004.18V257.686H1083.95V292H962.04V81.601H1083.95V115.915H1004.18ZM1251.97 81.902V115.915H1164.38V169.794H1231.5V203.205H1164.38V292H1122.24V81.902H1251.97ZM1323.99 81.902V292H1281.85V81.902H1323.99Z" fill="#FFEDED"/>
<path d="M108.888 54.9459C110.274 53.5781 112.142 52.8112 114.09 52.8112L213.567 52.811C220.191 52.811 223.482 60.842 218.764 65.4902L66.5167 215.467C63.6043 218.336 58.9178 218.302 56.0477 215.391L7.13746 165.779C4.26779 162.868 4.29971 158.183 7.20877 155.311L108.888 54.9459Z" fill="#83E247"/>
<path d="M115.161 318.479C113.775 319.847 111.906 320.614 109.959 320.614L10.4814 320.614C3.858 320.614 0.566683 312.583 5.28521 307.935L157.532 157.957C160.445 155.088 165.131 155.123 168.001 158.034L216.911 207.646C219.781 210.557 219.749 215.242 216.84 218.114L115.161 318.479Z" fill="white"/>
</svg>
