<svg width="407" height="31" viewBox="0 0 407 31" fill="none" xmlns="http://www.w3.org/2000/svg">
<path d="M392.865 1H15.1345C7.88053 1 2 7.49187 2 15.5C2 23.5081 7.88053 30 15.1345 30H392.865C400.119 30 406 23.5081 406 15.5C406 7.49187 400.119 1 392.865 1Z" stroke="url(#paint0_linear_15597_1983)" stroke-opacity="0.4"/>
<path d="M190.479 1H8.6648C4.98393 1 2 6.68801 2 14.9821C2 23.2763 4.98393 30 8.6648 30H190.479C194.16 30 207 30 207 14.9821C207 2.55357 197.144 1 190.479 1Z" fill="url(#paint1_linear_15597_1983)"/>
<path d="M253.006 16.136V15.226H255.848C256.24 15.226 256.59 15.1467 256.898 14.988C257.216 14.8293 257.463 14.6053 257.64 14.316C257.827 14.0173 257.92 13.6627 257.92 13.252C257.92 12.8413 257.827 12.4913 257.64 12.202C257.463 11.9033 257.216 11.6747 256.898 11.516C256.59 11.348 256.24 11.264 255.848 11.264H253.006V10.368H255.918C256.497 10.368 257.015 10.4893 257.472 10.732C257.93 10.9653 258.289 11.2967 258.55 11.726C258.821 12.1553 258.956 12.664 258.956 13.252C258.956 13.8307 258.821 14.3393 258.55 14.778C258.289 15.2073 257.93 15.5433 257.472 15.786C257.015 16.0193 256.497 16.136 255.918 16.136H253.006ZM252.348 20V10.368H253.37V20H252.348ZM265.416 20V16.136C265.416 15.5573 265.243 15.0907 264.898 14.736C264.562 14.372 264.114 14.19 263.554 14.19C263.171 14.19 262.835 14.274 262.546 14.442C262.256 14.61 262.028 14.8387 261.86 15.128C261.692 15.4173 261.608 15.7487 261.608 16.122L261.16 15.87C261.16 15.3753 261.276 14.932 261.51 14.54C261.743 14.148 262.056 13.84 262.448 13.616C262.849 13.392 263.306 13.28 263.82 13.28C264.324 13.28 264.772 13.3967 265.164 13.63C265.556 13.854 265.859 14.1667 266.074 14.568C266.298 14.9693 266.41 15.436 266.41 15.968V20H265.416ZM260.628 20V10.088H261.608V20H260.628ZM271.099 20.14C270.474 20.14 269.914 19.9907 269.419 19.692C268.924 19.384 268.532 18.9733 268.243 18.46C267.963 17.9467 267.823 17.368 267.823 16.724C267.823 16.0707 267.963 15.4873 268.243 14.974C268.532 14.4513 268.924 14.0407 269.419 13.742C269.914 13.434 270.469 13.28 271.085 13.28C271.589 13.28 272.037 13.3827 272.429 13.588C272.83 13.784 273.152 14.064 273.395 14.428C273.647 14.7827 273.801 15.198 273.857 15.674V17.732C273.801 18.208 273.647 18.628 273.395 18.992C273.152 19.356 272.83 19.6407 272.429 19.846C272.037 20.042 271.594 20.14 271.099 20.14ZM271.253 19.202C271.934 19.202 272.48 18.9733 272.891 18.516C273.311 18.0587 273.521 17.4567 273.521 16.71C273.521 16.2153 273.423 15.7813 273.227 15.408C273.04 15.0253 272.774 14.7313 272.429 14.526C272.093 14.3113 271.696 14.204 271.239 14.204C270.772 14.204 270.357 14.3113 269.993 14.526C269.638 14.7407 269.354 15.0393 269.139 15.422C268.934 15.7953 268.831 16.2247 268.831 16.71C268.831 17.1953 268.934 17.6247 269.139 17.998C269.354 18.3713 269.643 18.6653 270.007 18.88C270.371 19.0947 270.786 19.202 271.253 19.202ZM273.465 20V18.236L273.661 16.612L273.465 15.03V13.42H274.445V20H273.465ZM278.448 20.14C278.094 20.14 277.753 20.0933 277.426 20C277.1 19.8973 276.801 19.7573 276.53 19.58C276.269 19.4027 276.04 19.1927 275.844 18.95L276.474 18.306C276.736 18.6233 277.03 18.8613 277.356 19.02C277.692 19.1693 278.066 19.244 278.476 19.244C278.915 19.244 279.256 19.16 279.498 18.992C279.75 18.824 279.876 18.5907 279.876 18.292C279.876 18.012 279.788 17.7927 279.61 17.634C279.433 17.4753 279.204 17.3493 278.924 17.256C278.654 17.1627 278.364 17.074 278.056 16.99C277.748 16.8967 277.454 16.7847 277.174 16.654C276.894 16.514 276.666 16.3227 276.488 16.08C276.32 15.8373 276.236 15.52 276.236 15.128C276.236 14.7547 276.325 14.4327 276.502 14.162C276.689 13.882 276.95 13.6673 277.286 13.518C277.632 13.3593 278.038 13.28 278.504 13.28C278.999 13.28 279.447 13.3687 279.848 13.546C280.25 13.7233 280.572 13.9847 280.814 14.33L280.184 14.96C279.988 14.708 279.741 14.5167 279.442 14.386C279.153 14.246 278.826 14.176 278.462 14.176C278.042 14.176 277.72 14.26 277.496 14.428C277.282 14.5867 277.174 14.7967 277.174 15.058C277.174 15.31 277.263 15.5107 277.44 15.66C277.618 15.8 277.842 15.9167 278.112 16.01C278.392 16.094 278.686 16.1827 278.994 16.276C279.302 16.36 279.596 16.4767 279.876 16.626C280.156 16.766 280.38 16.962 280.548 17.214C280.726 17.4567 280.814 17.788 280.814 18.208C280.814 18.796 280.6 19.2673 280.17 19.622C279.75 19.9673 279.176 20.14 278.448 20.14ZM285.404 20.14C284.741 20.14 284.149 19.9907 283.626 19.692C283.103 19.3933 282.688 18.9827 282.38 18.46C282.081 17.9373 281.932 17.3493 281.932 16.696C281.932 16.052 282.081 15.4733 282.38 14.96C282.679 14.4373 283.085 14.0267 283.598 13.728C284.111 13.4293 284.685 13.28 285.32 13.28C285.917 13.28 286.445 13.4153 286.902 13.686C287.369 13.9567 287.733 14.3347 287.994 14.82C288.265 15.296 288.4 15.8467 288.4 16.472C288.4 16.5467 288.395 16.6353 288.386 16.738C288.377 16.8313 288.358 16.9433 288.33 17.074H282.632V16.234H287.798L287.448 16.542C287.457 16.0567 287.373 15.6413 287.196 15.296C287.028 14.9413 286.781 14.6707 286.454 14.484C286.137 14.288 285.749 14.19 285.292 14.19C284.816 14.19 284.401 14.2927 284.046 14.498C283.691 14.7033 283.411 14.9927 283.206 15.366C283.01 15.73 282.912 16.164 282.912 16.668C282.912 17.172 283.015 17.6153 283.22 17.998C283.435 18.3807 283.729 18.6793 284.102 18.894C284.485 19.1087 284.923 19.216 285.418 19.216C285.819 19.216 286.188 19.146 286.524 19.006C286.86 18.8567 287.145 18.6373 287.378 18.348L288.008 18.992C287.7 19.356 287.317 19.6407 286.86 19.846C286.412 20.042 285.927 20.14 285.404 20.14ZM290.077 16.92V15.982H294.543V16.92H290.077ZM295.59 19.37L299.16 15.646C299.57 15.2073 299.888 14.8387 300.112 14.54C300.345 14.2413 300.504 13.9707 300.588 13.728C300.681 13.476 300.728 13.2147 300.728 12.944C300.728 12.3933 300.555 11.964 300.21 11.656C299.864 11.3387 299.407 11.18 298.838 11.18C298.315 11.18 297.858 11.306 297.466 11.558C297.074 11.8007 296.724 12.1693 296.416 12.664L295.702 12.034C296.075 11.446 296.523 10.998 297.046 10.69C297.568 10.382 298.175 10.228 298.866 10.228C299.444 10.228 299.948 10.34 300.378 10.564C300.816 10.788 301.152 11.1053 301.386 11.516C301.628 11.9267 301.75 12.4073 301.75 12.958C301.75 13.3407 301.698 13.6907 301.596 14.008C301.493 14.316 301.311 14.6427 301.05 14.988C300.798 15.324 300.438 15.7347 299.972 16.22L296.948 19.328L295.59 19.37ZM295.59 20V19.37L296.43 19.076H301.988V20H295.59ZM306.62 20V13.42H307.614V20H306.62ZM307.11 11.992C306.923 11.992 306.765 11.9267 306.634 11.796C306.503 11.656 306.438 11.4927 306.438 11.306C306.438 11.11 306.503 10.9467 306.634 10.816C306.765 10.6853 306.923 10.62 307.11 10.62C307.315 10.62 307.479 10.6853 307.6 10.816C307.731 10.9467 307.796 11.11 307.796 11.306C307.796 11.4927 307.731 11.656 307.6 11.796C307.479 11.9267 307.315 11.992 307.11 11.992ZM311.616 20.14C311.262 20.14 310.921 20.0933 310.594 20C310.268 19.8973 309.969 19.7573 309.698 19.58C309.437 19.4027 309.208 19.1927 309.012 18.95L309.642 18.306C309.904 18.6233 310.198 18.8613 310.524 19.02C310.86 19.1693 311.234 19.244 311.644 19.244C312.083 19.244 312.424 19.16 312.666 18.992C312.918 18.824 313.044 18.5907 313.044 18.292C313.044 18.012 312.956 17.7927 312.778 17.634C312.601 17.4753 312.372 17.3493 312.092 17.256C311.822 17.1627 311.532 17.074 311.224 16.99C310.916 16.8967 310.622 16.7847 310.342 16.654C310.062 16.514 309.834 16.3227 309.656 16.08C309.488 15.8373 309.404 15.52 309.404 15.128C309.404 14.7547 309.493 14.4327 309.67 14.162C309.857 13.882 310.118 13.6673 310.454 13.518C310.8 13.3593 311.206 13.28 311.672 13.28C312.167 13.28 312.615 13.3687 313.016 13.546C313.418 13.7233 313.74 13.9847 313.982 14.33L313.352 14.96C313.156 14.708 312.909 14.5167 312.61 14.386C312.321 14.246 311.994 14.176 311.63 14.176C311.21 14.176 310.888 14.26 310.664 14.428C310.45 14.5867 310.342 14.7967 310.342 15.058C310.342 15.31 310.431 15.5107 310.608 15.66C310.786 15.8 311.01 15.9167 311.28 16.01C311.56 16.094 311.854 16.1827 312.162 16.276C312.47 16.36 312.764 16.4767 313.044 16.626C313.324 16.766 313.548 16.962 313.716 17.214C313.894 17.4567 313.982 17.788 313.982 18.208C313.982 18.796 313.768 19.2673 313.338 19.622C312.918 19.9673 312.344 20.14 311.616 20.14ZM321.538 20.14C320.894 20.14 320.311 19.9907 319.788 19.692C319.275 19.384 318.864 18.9687 318.556 18.446C318.257 17.9233 318.108 17.34 318.108 16.696C318.108 16.052 318.257 15.4733 318.556 14.96C318.864 14.4373 319.275 14.0267 319.788 13.728C320.311 13.4293 320.894 13.28 321.538 13.28C322.033 13.28 322.495 13.3733 322.924 13.56C323.353 13.7467 323.717 14.008 324.016 14.344L323.372 15.002C323.148 14.75 322.877 14.5587 322.56 14.428C322.243 14.288 321.902 14.218 321.538 14.218C321.071 14.218 320.656 14.3253 320.292 14.54C319.928 14.7547 319.643 15.0487 319.438 15.422C319.233 15.786 319.13 16.2107 319.13 16.696C319.13 17.172 319.233 17.6013 319.438 17.984C319.643 18.3573 319.928 18.6513 320.292 18.866C320.656 19.0807 321.071 19.188 321.538 19.188C321.911 19.188 322.257 19.1227 322.574 18.992C322.891 18.852 323.162 18.656 323.386 18.404L324.044 19.062C323.736 19.4073 323.363 19.6733 322.924 19.86C322.495 20.0467 322.033 20.14 321.538 20.14ZM328.278 20.14C327.643 20.14 327.064 19.986 326.542 19.678C326.028 19.37 325.618 18.9547 325.31 18.432C325.011 17.9093 324.862 17.326 324.862 16.682C324.862 16.0473 325.011 15.4733 325.31 14.96C325.618 14.4467 326.028 14.0407 326.542 13.742C327.064 13.434 327.643 13.28 328.278 13.28C328.922 13.28 329.5 13.4293 330.014 13.728C330.527 14.0267 330.933 14.4373 331.232 14.96C331.54 15.4733 331.694 16.0473 331.694 16.682C331.694 17.3353 331.54 17.9233 331.232 18.446C330.933 18.9593 330.527 19.37 330.014 19.678C329.5 19.986 328.922 20.14 328.278 20.14ZM328.278 19.188C328.744 19.188 329.155 19.0807 329.51 18.866C329.874 18.6513 330.158 18.3527 330.364 17.97C330.578 17.5873 330.686 17.158 330.686 16.682C330.686 16.206 330.578 15.786 330.364 15.422C330.158 15.0487 329.874 14.7547 329.51 14.54C329.155 14.3253 328.744 14.218 328.278 14.218C327.82 14.218 327.41 14.3253 327.046 14.54C326.682 14.7547 326.397 15.0487 326.192 15.422C325.986 15.786 325.884 16.206 325.884 16.682C325.884 17.1673 325.986 17.6013 326.192 17.984C326.397 18.3573 326.682 18.6513 327.046 18.866C327.41 19.0807 327.82 19.188 328.278 19.188ZM333.253 20V13.42H334.233V20H333.253ZM337.775 20V15.968C337.775 15.4267 337.611 14.9973 337.285 14.68C336.958 14.3533 336.547 14.19 336.053 14.19C335.717 14.19 335.409 14.2647 335.129 14.414C334.858 14.554 334.639 14.7547 334.471 15.016C334.312 15.2773 334.233 15.59 334.233 15.954L333.785 15.772C333.785 15.268 333.897 14.8293 334.121 14.456C334.345 14.0827 334.643 13.7933 335.017 13.588C335.399 13.3827 335.829 13.28 336.305 13.28C336.771 13.28 337.187 13.3827 337.551 13.588C337.924 13.7933 338.218 14.0827 338.433 14.456C338.657 14.8293 338.769 15.2727 338.769 15.786V20H337.775ZM342.311 20V15.968C342.311 15.4267 342.147 14.9973 341.821 14.68C341.494 14.3533 341.079 14.19 340.575 14.19C340.248 14.19 339.945 14.2647 339.665 14.414C339.394 14.554 339.175 14.7547 339.007 15.016C338.848 15.2773 338.769 15.59 338.769 15.954L338.181 15.772C338.209 15.268 338.339 14.8293 338.573 14.456C338.815 14.0827 339.128 13.7933 339.511 13.588C339.903 13.3827 340.332 13.28 340.799 13.28C341.265 13.28 341.685 13.3827 342.059 13.588C342.441 13.7933 342.74 14.0827 342.955 14.456C343.179 14.8293 343.291 15.2727 343.291 15.786V20H342.311ZM345.134 20V13.42H346.128V20H345.134ZM345.624 11.992C345.437 11.992 345.278 11.9267 345.148 11.796C345.017 11.656 344.952 11.4927 344.952 11.306C344.952 11.11 345.017 10.9467 345.148 10.816C345.278 10.6853 345.437 10.62 345.624 10.62C345.829 10.62 345.992 10.6853 346.114 10.816C346.244 10.9467 346.31 11.11 346.31 11.306C346.31 11.4927 346.244 11.656 346.114 11.796C345.992 11.9267 345.829 11.992 345.624 11.992ZM352.902 20V16.136C352.902 15.5573 352.729 15.0907 352.384 14.736C352.048 14.372 351.6 14.19 351.04 14.19C350.657 14.19 350.321 14.274 350.032 14.442C349.743 14.61 349.514 14.8387 349.346 15.128C349.178 15.4173 349.094 15.7487 349.094 16.122L348.646 15.87C348.646 15.3753 348.763 14.932 348.996 14.54C349.229 14.148 349.542 13.84 349.934 13.616C350.335 13.392 350.793 13.28 351.306 13.28C351.81 13.28 352.258 13.4013 352.65 13.644C353.042 13.8867 353.345 14.2133 353.56 14.624C353.784 15.0347 353.896 15.4827 353.896 15.968V20H352.902ZM348.114 20V13.42H349.094V20H348.114ZM358.445 22.912C357.783 22.912 357.19 22.786 356.667 22.534C356.154 22.2913 355.739 21.946 355.421 21.498L356.065 20.854C356.327 21.2087 356.658 21.484 357.059 21.68C357.461 21.876 357.932 21.974 358.473 21.974C359.22 21.974 359.813 21.7733 360.251 21.372C360.699 20.9707 360.923 20.4247 360.923 19.734V18.096L361.119 16.598L360.923 15.114V13.42H361.903V19.734C361.903 20.3687 361.759 20.924 361.469 21.4C361.18 21.876 360.774 22.2447 360.251 22.506C359.738 22.7767 359.136 22.912 358.445 22.912ZM358.515 19.93C357.909 19.93 357.363 19.7853 356.877 19.496C356.392 19.2067 356.009 18.81 355.729 18.306C355.449 17.802 355.309 17.2327 355.309 16.598C355.309 15.9633 355.445 15.3987 355.715 14.904C355.995 14.4 356.378 14.0033 356.863 13.714C357.349 13.4247 357.895 13.28 358.501 13.28C359.015 13.28 359.472 13.378 359.873 13.574C360.284 13.77 360.611 14.05 360.853 14.414C361.105 14.7687 361.259 15.1887 361.315 15.674V17.536C361.259 18.012 361.105 18.432 360.853 18.796C360.601 19.1507 360.275 19.4307 359.873 19.636C359.472 19.832 359.019 19.93 358.515 19.93ZM358.697 18.992C359.155 18.992 359.551 18.894 359.887 18.698C360.233 18.502 360.499 18.2267 360.685 17.872C360.881 17.508 360.979 17.0833 360.979 16.598C360.979 16.122 360.881 15.7067 360.685 15.352C360.499 14.9973 360.233 14.7173 359.887 14.512C359.542 14.3067 359.141 14.204 358.683 14.204C358.226 14.204 357.815 14.3067 357.451 14.512C357.097 14.7173 356.817 14.9973 356.611 15.352C356.415 15.7067 356.317 16.122 356.317 16.598C356.317 17.0647 356.42 17.48 356.625 17.844C356.831 18.208 357.111 18.4927 357.465 18.698C357.82 18.894 358.231 18.992 358.697 18.992Z" fill="#C8C8C8"/>
<path d="M53.9017 17.136V16.226H56.7437C57.1357 16.226 57.4857 16.1467 57.7937 15.988C58.1111 15.8293 58.3584 15.6053 58.5357 15.316C58.7224 15.0173 58.8157 14.6627 58.8157 14.252C58.8157 13.8413 58.7224 13.4913 58.5357 13.202C58.3584 12.9033 58.1111 12.6747 57.7937 12.516C57.4857 12.348 57.1357 12.264 56.7437 12.264H53.9017V11.368H56.8137C57.3924 11.368 57.9104 11.4893 58.3677 11.732C58.8251 11.9653 59.1844 12.2967 59.4457 12.726C59.7164 13.1553 59.8517 13.664 59.8517 14.252C59.8517 14.8307 59.7164 15.3393 59.4457 15.778C59.1844 16.2073 58.8251 16.5433 58.3677 16.786C57.9104 17.0193 57.3924 17.136 56.8137 17.136H53.9017ZM53.2437 21V11.368H54.2657V21H53.2437ZM66.3113 21V17.136C66.3113 16.5573 66.1386 16.0907 65.7933 15.736C65.4573 15.372 65.0093 15.19 64.4493 15.19C64.0666 15.19 63.7306 15.274 63.4413 15.442C63.152 15.61 62.9233 15.8387 62.7553 16.128C62.5873 16.4173 62.5033 16.7487 62.5033 17.122L62.0553 16.87C62.0553 16.3753 62.172 15.932 62.4053 15.54C62.6386 15.148 62.9513 14.84 63.3433 14.616C63.7446 14.392 64.202 14.28 64.7153 14.28C65.2193 14.28 65.6673 14.3967 66.0593 14.63C66.4513 14.854 66.7546 15.1667 66.9693 15.568C67.1933 15.9693 67.3053 16.436 67.3053 16.968V21H66.3113ZM61.5233 21V11.088H62.5033V21H61.5233ZM71.9945 21.14C71.3692 21.14 70.8092 20.9907 70.3145 20.692C69.8199 20.384 69.4279 19.9733 69.1385 19.46C68.8585 18.9467 68.7185 18.368 68.7185 17.724C68.7185 17.0707 68.8585 16.4873 69.1385 15.974C69.4279 15.4513 69.8199 15.0407 70.3145 14.742C70.8092 14.434 71.3645 14.28 71.9805 14.28C72.4845 14.28 72.9325 14.3827 73.3245 14.588C73.7259 14.784 74.0479 15.064 74.2905 15.428C74.5425 15.7827 74.6965 16.198 74.7525 16.674V18.732C74.6965 19.208 74.5425 19.628 74.2905 19.992C74.0479 20.356 73.7259 20.6407 73.3245 20.846C72.9325 21.042 72.4892 21.14 71.9945 21.14ZM72.1485 20.202C72.8299 20.202 73.3759 19.9733 73.7865 19.516C74.2065 19.0587 74.4165 18.4567 74.4165 17.71C74.4165 17.2153 74.3185 16.7813 74.1225 16.408C73.9359 16.0253 73.6699 15.7313 73.3245 15.526C72.9885 15.3113 72.5919 15.204 72.1345 15.204C71.6679 15.204 71.2525 15.3113 70.8885 15.526C70.5339 15.7407 70.2492 16.0393 70.0345 16.422C69.8292 16.7953 69.7265 17.2247 69.7265 17.71C69.7265 18.1953 69.8292 18.6247 70.0345 18.998C70.2492 19.3713 70.5385 19.6653 70.9025 19.88C71.2665 20.0947 71.6819 20.202 72.1485 20.202ZM74.3605 21V19.236L74.5565 17.612L74.3605 16.03V14.42H75.3405V21H74.3605ZM79.344 21.14C78.9893 21.14 78.6487 21.0933 78.322 21C77.9953 20.8973 77.6967 20.7573 77.426 20.58C77.1647 20.4027 76.936 20.1927 76.74 19.95L77.37 19.306C77.6313 19.6233 77.9253 19.8613 78.252 20.02C78.588 20.1693 78.9613 20.244 79.372 20.244C79.8107 20.244 80.1513 20.16 80.394 19.992C80.646 19.824 80.772 19.5907 80.772 19.292C80.772 19.012 80.6833 18.7927 80.506 18.634C80.3287 18.4753 80.1 18.3493 79.82 18.256C79.5493 18.1627 79.26 18.074 78.952 17.99C78.644 17.8967 78.35 17.7847 78.07 17.654C77.79 17.514 77.5613 17.3227 77.384 17.08C77.216 16.8373 77.132 16.52 77.132 16.128C77.132 15.7547 77.2207 15.4327 77.398 15.162C77.5847 14.882 77.846 14.6673 78.182 14.518C78.5273 14.3593 78.9333 14.28 79.4 14.28C79.8947 14.28 80.3427 14.3687 80.744 14.546C81.1453 14.7233 81.4673 14.9847 81.71 15.33L81.08 15.96C80.884 15.708 80.6367 15.5167 80.338 15.386C80.0487 15.246 79.722 15.176 79.358 15.176C78.938 15.176 78.616 15.26 78.392 15.428C78.1773 15.5867 78.07 15.7967 78.07 16.058C78.07 16.31 78.1587 16.5107 78.336 16.66C78.5133 16.8 78.7373 16.9167 79.008 17.01C79.288 17.094 79.582 17.1827 79.89 17.276C80.198 17.36 80.492 17.4767 80.772 17.626C81.052 17.766 81.276 17.962 81.444 18.214C81.6213 18.4567 81.71 18.788 81.71 19.208C81.71 19.796 81.4953 20.2673 81.066 20.622C80.646 20.9673 80.072 21.14 79.344 21.14ZM86.2996 21.14C85.6369 21.14 85.0442 20.9907 84.5216 20.692C83.9989 20.3933 83.5836 19.9827 83.2756 19.46C82.9769 18.9373 82.8276 18.3493 82.8276 17.696C82.8276 17.052 82.9769 16.4733 83.2756 15.96C83.5742 15.4373 83.9802 15.0267 84.4936 14.728C85.0069 14.4293 85.5809 14.28 86.2156 14.28C86.8129 14.28 87.3402 14.4153 87.7976 14.686C88.2642 14.9567 88.6282 15.3347 88.8896 15.82C89.1602 16.296 89.2956 16.8467 89.2956 17.472C89.2956 17.5467 89.2909 17.6353 89.2816 17.738C89.2722 17.8313 89.2536 17.9433 89.2256 18.074H83.5276V17.234H88.6936L88.3436 17.542C88.3529 17.0567 88.2689 16.6413 88.0916 16.296C87.9236 15.9413 87.6762 15.6707 87.3496 15.484C87.0322 15.288 86.6449 15.19 86.1876 15.19C85.7116 15.19 85.2962 15.2927 84.9416 15.498C84.5869 15.7033 84.3069 15.9927 84.1016 16.366C83.9056 16.73 83.8076 17.164 83.8076 17.668C83.8076 18.172 83.9102 18.6153 84.1156 18.998C84.3302 19.3807 84.6242 19.6793 84.9976 19.894C85.3802 20.1087 85.8189 20.216 86.3136 20.216C86.7149 20.216 87.0836 20.146 87.4196 20.006C87.7556 19.8567 88.0402 19.6373 88.2736 19.348L88.9036 19.992C88.5956 20.356 88.2129 20.6407 87.7556 20.846C87.3076 21.042 86.8222 21.14 86.2996 21.14ZM90.9725 17.92V16.982H95.4385V17.92H90.9725ZM98.1317 21V11.368H99.1397V21H98.1317ZM96.1017 12.278V11.368H98.9997V12.278H96.1017ZM104.33 21V14.42H105.324V21H104.33ZM104.82 12.992C104.633 12.992 104.475 12.9267 104.344 12.796C104.213 12.656 104.148 12.4927 104.148 12.306C104.148 12.11 104.213 11.9467 104.344 11.816C104.475 11.6853 104.633 11.62 104.82 11.62C105.025 11.62 105.189 11.6853 105.31 11.816C105.441 11.9467 105.506 12.11 105.506 12.306C105.506 12.4927 105.441 12.656 105.31 12.796C105.189 12.9267 105.025 12.992 104.82 12.992ZM109.326 21.14C108.972 21.14 108.631 21.0933 108.304 21C107.978 20.8973 107.679 20.7573 107.408 20.58C107.147 20.4027 106.918 20.1927 106.722 19.95L107.352 19.306C107.614 19.6233 107.908 19.8613 108.234 20.02C108.57 20.1693 108.944 20.244 109.354 20.244C109.793 20.244 110.134 20.16 110.376 19.992C110.628 19.824 110.754 19.5907 110.754 19.292C110.754 19.012 110.666 18.7927 110.488 18.634C110.311 18.4753 110.082 18.3493 109.802 18.256C109.532 18.1627 109.242 18.074 108.934 17.99C108.626 17.8967 108.332 17.7847 108.052 17.654C107.772 17.514 107.544 17.3227 107.366 17.08C107.198 16.8373 107.114 16.52 107.114 16.128C107.114 15.7547 107.203 15.4327 107.38 15.162C107.567 14.882 107.828 14.6673 108.164 14.518C108.51 14.3593 108.916 14.28 109.382 14.28C109.877 14.28 110.325 14.3687 110.726 14.546C111.128 14.7233 111.45 14.9847 111.692 15.33L111.062 15.96C110.866 15.708 110.619 15.5167 110.32 15.386C110.031 15.246 109.704 15.176 109.34 15.176C108.92 15.176 108.598 15.26 108.374 15.428C108.16 15.5867 108.052 15.7967 108.052 16.058C108.052 16.31 108.141 16.5107 108.318 16.66C108.496 16.8 108.72 16.9167 108.99 17.01C109.27 17.094 109.564 17.1827 109.872 17.276C110.18 17.36 110.474 17.4767 110.754 17.626C111.034 17.766 111.258 17.962 111.426 18.214C111.604 18.4567 111.692 18.788 111.692 19.208C111.692 19.796 111.478 20.2673 111.048 20.622C110.628 20.9673 110.054 21.14 109.326 21.14ZM116.252 21V14.42H117.232V21H116.252ZM117.232 17.164L116.826 16.982C116.826 16.1513 117.026 15.4933 117.428 15.008C117.838 14.5227 118.398 14.28 119.108 14.28C119.434 14.28 119.733 14.3407 120.004 14.462C120.274 14.574 120.526 14.756 120.76 15.008L120.116 15.694C119.957 15.5167 119.78 15.3907 119.584 15.316C119.397 15.2413 119.182 15.204 118.94 15.204C118.436 15.204 118.025 15.372 117.708 15.708C117.39 16.0347 117.232 16.52 117.232 17.164ZM124.407 21.14C123.875 21.14 123.399 21.0187 122.979 20.776C122.559 20.524 122.227 20.1833 121.985 19.754C121.751 19.3247 121.635 18.8207 121.635 18.242V14.42H122.629V18.2C122.629 18.6013 122.699 18.9513 122.839 19.25C122.988 19.5487 123.198 19.782 123.469 19.95C123.739 20.118 124.052 20.202 124.407 20.202C124.957 20.202 125.391 20.02 125.709 19.656C126.035 19.292 126.199 18.8067 126.199 18.2V14.42H127.179V18.242C127.179 18.8113 127.062 19.3153 126.829 19.754C126.595 20.1927 126.269 20.5333 125.849 20.776C125.429 21.0187 124.948 21.14 124.407 21.14ZM133.796 21V17.136C133.796 16.5573 133.623 16.0907 133.278 15.736C132.942 15.372 132.494 15.19 131.934 15.19C131.551 15.19 131.215 15.274 130.926 15.442C130.636 15.61 130.408 15.8387 130.24 16.128C130.072 16.4173 129.988 16.7487 129.988 17.122L129.54 16.87C129.54 16.3753 129.656 15.932 129.89 15.54C130.123 15.148 130.436 14.84 130.828 14.616C131.229 14.392 131.686 14.28 132.2 14.28C132.704 14.28 133.152 14.4013 133.544 14.644C133.936 14.8867 134.239 15.2133 134.454 15.624C134.678 16.0347 134.79 16.4827 134.79 16.968V21H133.796ZM129.008 21V14.42H129.988V21H129.008ZM141.411 21V17.136C141.411 16.5573 141.238 16.0907 140.893 15.736C140.557 15.372 140.109 15.19 139.549 15.19C139.166 15.19 138.83 15.274 138.541 15.442C138.252 15.61 138.023 15.8387 137.855 16.128C137.687 16.4173 137.603 16.7487 137.603 17.122L137.155 16.87C137.155 16.3753 137.272 15.932 137.505 15.54C137.738 15.148 138.051 14.84 138.443 14.616C138.844 14.392 139.302 14.28 139.815 14.28C140.319 14.28 140.767 14.4013 141.159 14.644C141.551 14.8867 141.854 15.2133 142.069 15.624C142.293 16.0347 142.405 16.4827 142.405 16.968V21H141.411ZM136.623 21V14.42H137.603V21H136.623ZM144.238 21V14.42H145.232V21H144.238ZM144.728 12.992C144.541 12.992 144.383 12.9267 144.252 12.796C144.121 12.656 144.056 12.4927 144.056 12.306C144.056 12.11 144.121 11.9467 144.252 11.816C144.383 11.6853 144.541 11.62 144.728 11.62C144.933 11.62 145.097 11.6853 145.218 11.816C145.349 11.9467 145.414 12.11 145.414 12.306C145.414 12.4927 145.349 12.656 145.218 12.796C145.097 12.9267 144.933 12.992 144.728 12.992ZM152.007 21V17.136C152.007 16.5573 151.834 16.0907 151.489 15.736C151.153 15.372 150.705 15.19 150.145 15.19C149.762 15.19 149.426 15.274 149.137 15.442C148.847 15.61 148.619 15.8387 148.451 16.128C148.283 16.4173 148.199 16.7487 148.199 17.122L147.751 16.87C147.751 16.3753 147.867 15.932 148.101 15.54C148.334 15.148 148.647 14.84 149.039 14.616C149.44 14.392 149.897 14.28 150.411 14.28C150.915 14.28 151.363 14.4013 151.755 14.644C152.147 14.8867 152.45 15.2133 152.665 15.624C152.889 16.0347 153.001 16.4827 153.001 16.968V21H152.007ZM147.219 21V14.42H148.199V21H147.219ZM157.55 23.912C156.887 23.912 156.295 23.786 155.772 23.534C155.259 23.2913 154.843 22.946 154.526 22.498L155.17 21.854C155.431 22.2087 155.763 22.484 156.164 22.68C156.565 22.876 157.037 22.974 157.578 22.974C158.325 22.974 158.917 22.7733 159.356 22.372C159.804 21.9707 160.028 21.4247 160.028 20.734V19.096L160.224 17.598L160.028 16.114V14.42H161.008V20.734C161.008 21.3687 160.863 21.924 160.574 22.4C160.285 22.876 159.879 23.2447 159.356 23.506C158.843 23.7767 158.241 23.912 157.55 23.912ZM157.62 20.93C157.013 20.93 156.467 20.7853 155.982 20.496C155.497 20.2067 155.114 19.81 154.834 19.306C154.554 18.802 154.414 18.2327 154.414 17.598C154.414 16.9633 154.549 16.3987 154.82 15.904C155.1 15.4 155.483 15.0033 155.968 14.714C156.453 14.4247 156.999 14.28 157.606 14.28C158.119 14.28 158.577 14.378 158.978 14.574C159.389 14.77 159.715 15.05 159.958 15.414C160.21 15.7687 160.364 16.1887 160.42 16.674V18.536C160.364 19.012 160.21 19.432 159.958 19.796C159.706 20.1507 159.379 20.4307 158.978 20.636C158.577 20.832 158.124 20.93 157.62 20.93ZM157.802 19.992C158.259 19.992 158.656 19.894 158.992 19.698C159.337 19.502 159.603 19.2267 159.79 18.872C159.986 18.508 160.084 18.0833 160.084 17.598C160.084 17.122 159.986 16.7067 159.79 16.352C159.603 15.9973 159.337 15.7173 158.992 15.512C158.647 15.3067 158.245 15.204 157.788 15.204C157.331 15.204 156.92 15.3067 156.556 15.512C156.201 15.7173 155.921 15.9973 155.716 16.352C155.52 16.7067 155.422 17.122 155.422 17.598C155.422 18.0647 155.525 18.48 155.73 18.844C155.935 19.208 156.215 19.4927 156.57 19.698C156.925 19.894 157.335 19.992 157.802 19.992Z" fill="white"/>
<mask id="mask0_15597_1983" style="mask-type:luminance" maskUnits="userSpaceOnUse" x="16" y="6" width="19" height="19">
<path d="M34.5 6.5H16.5V24.5H34.5V6.5Z" fill="white"/>
</mask>
<g mask="url(#mask0_15597_1983)">
<path d="M26.1443 19.7231H26.1294C25.1416 19.6833 24.1953 19.5654 23.3935 19.3828C23.2108 19.3413 23.0979 19.1603 23.1394 18.9777C23.1809 18.7951 23.3636 18.6805 23.5445 18.7237C24.3065 18.898 25.2097 19.0093 26.1576 19.0474C26.3436 19.0557 26.4896 19.2118 26.4813 19.3994C26.4747 19.5804 26.3253 19.7231 26.1443 19.7231ZM27.896 19.9223C27.7167 19.9223 27.5686 19.7829 27.5586 19.6036C27.547 19.4177 27.6898 19.2566 27.8774 19.2467C30.7362 19.079 32.2588 18.2937 32.2588 17.7923C32.2588 17.6064 32.4098 17.4537 32.5974 17.4537C32.7833 17.4537 32.936 17.6047 32.936 17.7923C32.936 19.0607 30.4158 19.7763 27.919 19.9223H27.896ZM26.8349 18.3518C26.0962 18.3518 25.3707 18.3087 24.6784 18.2223C24.4925 18.1991 24.3613 18.0298 24.3846 17.8455C24.4078 17.6595 24.5755 17.5267 24.7614 17.5517C26.2456 17.7359 27.9224 17.7143 29.3318 17.4935C29.5145 17.4686 29.6888 17.5915 29.7186 17.7757C29.7485 17.96 29.6207 18.1327 29.4364 18.1626C28.6246 18.2871 27.7497 18.3518 26.8349 18.3518ZM29.4985 18.1626C29.3541 18.1626 29.545 17.9584 29.4985 17.814C29.4711 17.7243 29.3941 17.5999 29.4985 17.5013C29.603 17.4027 29.4985 17.5013 30.7795 17.1665C31.8702 16.8262 32.257 16.4277 32.257 16.1903C32.257 15.6142 30.22 14.746 27.0275 14.6962C26.8416 14.6928 26.6922 14.5385 26.6955 14.3525C26.6988 14.1666 26.8549 14.0056 27.0391 14.0205C29.9693 14.067 32.9344 14.8273 32.9344 16.192C32.9344 16.6535 32.5957 17.3109 30.982 17.814C30.9488 17.8223 29.5317 18.1626 29.4985 18.1626Z" fill="#83E247"/>
<path fill-rule="evenodd" clip-rule="evenodd" d="M29.3012 17.65C27.8194 17.8768 26.2997 17.8935 24.7421 17.7001C24.6911 17.6933 24.6455 17.7057 24.6051 17.7374C24.5642 17.7694 24.5405 17.8116 24.5339 17.8641C24.5275 17.9152 24.5402 17.9611 24.572 18.002C24.6039 18.0431 24.6458 18.0668 24.6975 18.0733C25.3836 18.1589 26.0963 18.2017 26.8355 18.2017C27.701 18.2017 28.5257 18.1444 29.3096 18.0298C29.3146 18.0119 29.3208 17.9925 29.3282 17.9715C29.3506 17.9083 29.3597 17.8703 29.3556 17.8576C29.3534 17.8502 29.3485 17.8365 29.341 17.8166C29.3183 17.7566 29.3051 17.7011 29.3012 17.65ZM29.4608 18.3105L29.4597 18.3107C28.6295 18.438 27.7548 18.5017 26.8355 18.5017C26.0839 18.5017 25.3589 18.4581 24.6604 18.371C24.5264 18.3543 24.418 18.2927 24.3352 18.1863C24.2524 18.0799 24.2195 17.96 24.2363 17.8265C24.2531 17.6925 24.3143 17.5841 24.42 17.5013C24.5268 17.4176 24.6474 17.3848 24.7819 17.4028C26.3288 17.5949 27.8379 17.5756 29.3092 17.3452C29.3615 17.338 29.4119 17.3382 29.4603 17.3459C29.5135 17.316 29.583 17.2925 29.6688 17.2753C29.9594 17.2169 30.316 17.1325 30.7387 17.0221C31.222 16.871 31.5887 16.7033 31.8388 16.5189C32.018 16.3868 32.1076 16.2772 32.1076 16.1901C32.1076 16.0965 32.0068 15.9814 31.8053 15.8448C31.564 15.6813 31.2267 15.5292 30.7936 15.3884C29.752 15.0497 28.4959 14.8689 27.0254 14.846C26.8911 14.8436 26.777 14.7939 26.6833 14.6969C26.5894 14.5998 26.5437 14.4841 26.5461 14.3497C26.5485 14.2147 26.598 14.0996 26.6947 14.0042C26.7947 13.9055 26.912 13.8609 27.0466 13.8704C28.6418 13.896 30.0041 14.0957 31.1333 14.4693C32.4344 14.8999 33.0849 15.474 33.0849 16.1918C33.0849 16.941 32.399 17.5294 31.0272 17.957L31.0231 17.9583L31.019 17.9593C30.0773 18.1947 29.5707 18.3124 29.4991 18.3124C29.4857 18.3124 29.4729 18.3118 29.4608 18.3105ZM29.8634 17.9341C30.1045 17.877 30.4641 17.7888 30.942 17.6693C32.1706 17.2857 32.7849 16.7932 32.7849 16.1918C32.7849 15.6185 32.203 15.1393 31.039 14.7542C29.9378 14.3898 28.6039 14.1951 27.0373 14.1703L27.0325 14.1702L27.0276 14.1698C26.9822 14.1662 26.9415 14.1821 26.9054 14.2178C26.8668 14.2559 26.847 14.3016 26.846 14.355C26.8451 14.4065 26.8628 14.451 26.899 14.4884C26.9352 14.5259 26.9791 14.5451 27.0308 14.546C28.5309 14.5694 29.8161 14.7551 30.8864 15.1031C31.9005 15.4328 32.4076 15.7951 32.4076 16.1901C32.4076 16.6071 31.88 16.9803 30.8247 17.3095L30.8214 17.3106L30.818 17.3114C30.4183 17.4159 30.0761 17.4976 29.7913 17.5565C29.8301 17.6133 29.8554 17.6784 29.8673 17.7516C29.8776 17.8151 29.8763 17.876 29.8634 17.9341ZM27.8966 20.0722H27.9239L27.9283 20.0719C29.3152 19.9908 30.4782 19.7729 31.4174 19.4184C32.5302 18.9982 33.0866 18.4562 33.0866 17.7922C33.0866 17.657 33.0387 17.5418 32.9429 17.4463C32.8474 17.3511 32.7324 17.3035 32.5979 17.3035C32.4628 17.3035 32.3475 17.3514 32.252 17.4472C32.1569 17.5427 32.1093 17.6577 32.1093 17.7922C32.1093 18.0085 31.7687 18.2458 31.0875 18.5042C30.2481 18.8226 29.1757 19.0201 27.8701 19.0967C27.7348 19.1039 27.622 19.158 27.5319 19.2592C27.4418 19.3602 27.401 19.4777 27.4094 19.6118C27.4166 19.7412 27.4672 19.8503 27.5614 19.9391C27.6554 20.0278 27.7671 20.0722 27.8966 20.0722ZM27.9151 19.7722C29.2697 19.6926 30.4017 19.4811 31.3114 19.1377C32.2949 18.7664 32.7866 18.3179 32.7866 17.7922C32.7866 17.7401 32.7681 17.6956 32.7311 17.6588C32.6942 17.6219 32.6498 17.6035 32.5979 17.6035C32.4722 17.6035 32.4094 17.6664 32.4094 17.7922C32.4094 18.1465 32.0042 18.4774 31.1939 18.7847C30.3259 19.114 29.2233 19.3178 27.886 19.3963C27.8339 19.399 27.7905 19.4199 27.7558 19.4588C27.7213 19.4975 27.7057 19.543 27.7089 19.5951C27.7155 19.7132 27.778 19.7722 27.8966 19.7722H27.9151ZM26.6318 19.4059L26.6318 19.4047C26.6375 19.27 26.5946 19.1532 26.503 19.0542C26.4119 18.9557 26.299 18.9034 26.1642 18.8974C25.2042 18.8587 24.3427 18.7521 23.5799 18.5776C23.4486 18.5463 23.3255 18.5667 23.2106 18.6388C23.096 18.7107 23.0237 18.8125 22.9937 18.9443C22.9638 19.0759 22.9845 19.1987 23.0558 19.3126C23.1273 19.4269 23.229 19.4989 23.3607 19.5289C24.1878 19.7172 25.1088 19.8319 26.1239 19.8728L26.1269 19.873H26.1449C26.2757 19.873 26.3882 19.8277 26.4826 19.7372C26.577 19.6467 26.6267 19.5362 26.6318 19.4059ZM26.1521 19.1972C26.2776 19.2028 26.3376 19.2679 26.332 19.3926L26.332 19.3937C26.3276 19.5132 26.2652 19.5729 26.1449 19.5729H26.133C25.1375 19.5326 24.2356 19.4205 23.4273 19.2364C23.3667 19.2226 23.3247 19.1971 23.3011 19.1599C23.2772 19.1222 23.2722 19.0725 23.2863 19.0108C23.2978 18.96 23.3257 18.9207 23.3699 18.893C23.4138 18.8654 23.4606 18.8576 23.5103 18.8695C24.293 19.0485 25.1736 19.1577 26.1521 19.1972Z" fill="#83E247"/>
<path d="M20.178 21.5664C19.9506 21.5664 19.7447 21.5034 19.5737 21.3539C19.4326 21.2311 19.4177 21.0186 19.5388 20.8775C19.6617 20.7364 19.8742 20.7214 20.0153 20.8426C20.2012 21.0036 21.0048 20.8028 22.3761 19.5892C23.1762 18.8853 24.0163 17.9739 24.8065 16.9546C27.0909 14.0011 27.8994 11.5574 27.4528 11.1722C27.3117 11.051 27.2951 10.8369 27.4163 10.6958C27.5391 10.5546 27.7516 10.538 27.8928 10.6592C28.9304 11.5524 27.3947 14.71 25.3394 17.3679C24.5226 18.4221 23.6527 19.3651 22.821 20.0955C22.1403 20.7015 21.0164 21.5664 20.178 21.5664Z" fill="#83E247"/>
<path fill-rule="evenodd" clip-rule="evenodd" d="M22.9197 20.2081L22.9205 20.2074C23.7726 19.459 24.6184 18.543 25.4579 17.4595C26.5752 16.0145 27.394 14.6644 27.9143 13.409C28.5108 11.9697 28.5361 11.0151 27.9903 10.5453C27.8883 10.4577 27.7702 10.419 27.6359 10.4294C27.5023 10.4397 27.3911 10.4958 27.3023 10.5978C27.2147 10.6998 27.1761 10.8182 27.1864 10.9528C27.1968 11.0872 27.2528 11.1982 27.3546 11.2856C27.4267 11.3478 27.4419 11.5195 27.4004 11.8007C27.3511 12.1344 27.2227 12.5481 27.0153 13.042C26.5182 14.2254 25.7424 15.4989 24.6878 16.8624C23.8865 17.896 23.0827 18.7674 22.2764 19.4767C21.6678 20.0153 21.1385 20.388 20.6883 20.5949C20.3704 20.741 20.1786 20.7856 20.1128 20.7286C20.0109 20.6412 19.8931 20.6023 19.7592 20.6119C19.6252 20.6216 19.5137 20.6775 19.4248 20.7795C19.3373 20.8815 19.2984 20.9994 19.3081 21.1332C19.3178 21.2672 19.3733 21.3784 19.4748 21.4667C19.6652 21.6331 19.8995 21.7162 20.1778 21.7162C20.8762 21.7162 21.7902 21.2135 22.9197 20.2081ZM25.2206 17.276C24.3926 18.3445 23.5597 19.2468 22.7218 19.9827L22.721 19.9833C21.648 20.9386 20.8002 21.4162 20.1778 21.4162C19.9746 21.4162 19.8061 21.3578 19.6722 21.2408C19.5776 21.1584 19.571 21.0698 19.6524 20.975C19.7342 20.8811 19.8225 20.8748 19.9174 20.9562C20.0799 21.097 20.3786 21.0674 20.8136 20.8675C21.2906 20.6483 21.8445 20.2595 22.4753 19.7013C23.2954 18.9799 24.1119 18.0949 24.9249 17.0463C25.9957 15.6618 26.7847 14.3658 27.2919 13.1582C27.7693 12.0214 27.8555 11.3215 27.5506 11.0584C27.5027 11.0173 27.4771 10.9746 27.4739 10.9302C27.4706 10.8862 27.4893 10.8406 27.5299 10.7933C27.6122 10.6987 27.7005 10.6919 27.7948 10.7729C28.2308 11.1481 28.1782 11.9886 27.6371 13.2942C27.1271 14.5249 26.3216 15.8521 25.2206 17.276Z" fill="#83E247"/>
<path d="M19.0138 20.5505C18.71 20.5505 18.5124 20.4393 18.3962 20.338C17.357 19.4432 18.8943 16.2872 20.9495 13.6326C22.8023 11.242 24.8194 9.55692 25.9682 9.44237C26.345 9.40418 26.5824 9.53369 26.7169 9.64824C27.21 10.0716 27.1701 10.9847 26.5924 12.3626C26.521 12.5353 26.3235 12.6166 26.1508 12.5436C25.9798 12.4722 25.8968 12.2729 25.9699 12.1019C26.5077 10.8186 26.4065 10.2725 26.277 10.1612C26.2288 10.1181 26.1475 10.1048 26.0363 10.1147C25.2245 10.1961 23.4016 11.5724 21.4841 14.0477C19.1981 16.9978 18.3896 19.4415 18.8362 19.8267C18.8843 19.8682 18.9657 19.8831 19.0769 19.8715C19.8887 19.7902 21.7132 18.4122 23.6257 15.9386C24.1337 15.2845 24.5936 14.6187 24.9953 13.9613C25.0933 13.8003 25.3008 13.7522 25.4602 13.8484C25.6196 13.9464 25.671 14.1539 25.5731 14.3133C25.158 14.9923 24.6832 15.6796 24.1603 16.3536C22.3125 18.7426 20.2971 20.4277 19.1466 20.5439C19.1001 20.5489 19.057 20.5505 19.0138 20.5505Z" fill="#83E247"/>
<path fill-rule="evenodd" clip-rule="evenodd" d="M19.1559 20.6441C19.7513 20.5837 20.5182 20.1618 21.4554 19.3784C22.3824 18.6036 23.3102 17.6159 24.2386 16.4156C24.7613 15.7418 25.2343 15.0588 25.6576 14.3663C25.721 14.2631 25.7383 14.1526 25.7095 14.0348C25.6809 13.9176 25.6148 13.8272 25.5112 13.7635C25.4078 13.7011 25.2976 13.6838 25.1807 13.7118C25.0629 13.7401 24.9724 13.8061 24.9093 13.9099C24.5027 14.5752 24.0482 15.2313 23.5459 15.8781C22.6457 17.0424 21.755 17.9917 20.8738 18.726C20.0867 19.3819 19.484 19.7308 19.0658 19.7728C18.9822 19.7815 18.9272 19.7745 18.9007 19.7517C18.8148 19.6775 18.794 19.4908 18.8382 19.1914C18.8882 18.8536 19.0177 18.436 19.2269 17.9385C19.7259 16.7512 20.5045 15.4749 21.5624 14.1096C22.4651 12.9443 23.357 11.9948 24.2381 11.261C25.0252 10.6055 25.6273 10.2568 26.0445 10.215C26.1301 10.2074 26.1856 10.215 26.2111 10.2378C26.2728 10.2908 26.2936 10.4397 26.2733 10.6845C26.2435 11.0449 26.1114 11.5045 25.8772 12.0634C25.8297 12.1744 25.8292 12.2862 25.8756 12.3989C25.9218 12.5109 26.0003 12.5901 26.1111 12.6364C26.223 12.6837 26.3349 12.6844 26.4468 12.6384C26.5587 12.5925 26.6377 12.5137 26.6839 12.402C27.2825 10.9742 27.3149 10.0312 26.781 9.57283C26.5623 9.38654 26.2878 9.31012 25.9575 9.34358C25.3629 9.40288 24.5964 9.82433 23.658 10.6079C22.7302 11.3827 21.8008 12.3707 20.8697 13.5721C19.7547 15.0122 18.9379 16.3574 18.4193 17.6076C17.8318 19.024 17.8019 19.9595 18.3298 20.4141C18.5112 20.5721 18.739 20.6512 19.0131 20.6512C19.0636 20.6512 19.1113 20.6488 19.1559 20.6441ZM21.3271 19.225C20.4211 19.9823 19.6906 20.389 19.1358 20.4451C19.0981 20.4491 19.0567 20.4512 19.0131 20.4512C18.7889 20.4512 18.6049 20.3885 18.4612 20.2633C18.0059 19.8712 18.0535 19.0115 18.6041 17.6842C19.1159 16.4505 19.9238 15.1206 21.0279 13.6945C21.9501 12.5046 22.8695 11.5269 23.7862 10.7614C24.6931 10.0041 25.4235 9.59782 25.9774 9.54259C26.2513 9.51483 26.476 9.57568 26.6514 9.72508C27.1112 10.1199 27.0606 10.9864 26.4995 12.3246C26.4742 12.3857 26.4314 12.4286 26.3709 12.4534C26.3104 12.4783 26.2497 12.4778 26.1891 12.4522C26.1285 12.4269 26.0857 12.3838 26.0606 12.3227C26.0355 12.2618 26.0356 12.2015 26.0611 12.1419C26.3039 11.5627 26.4411 11.0824 26.4726 10.701C26.4985 10.3884 26.4548 10.1834 26.3414 10.0861C26.2749 10.0264 26.17 10.003 26.0266 10.0159C25.5674 10.0619 24.9286 10.4257 24.1101 11.1073C23.2179 11.8504 22.3159 12.8103 21.4043 13.9871C20.3356 15.3662 19.5484 16.6576 19.0425 17.861C18.5742 18.9751 18.4834 19.6558 18.7701 19.9031C18.8402 19.9635 18.9457 19.9864 19.0866 19.9717C19.5449 19.9257 20.1833 19.5617 21.0018 18.8797C21.8942 18.136 22.795 17.1763 23.7041 16.0004C24.2108 15.348 24.6695 14.6859 25.0799 14.0142C25.1622 13.8789 25.2715 13.8524 25.4078 13.9347C25.5434 14.0181 25.5699 14.127 25.4872 14.2616C25.0676 14.948 24.5988 15.6251 24.0806 16.293C23.1609 17.4821 22.2431 18.4594 21.3271 19.225Z" fill="#83E247"/>
<path d="M19.8669 21.4855C19.7889 21.4855 19.7108 21.4589 19.6478 21.4041L18.4375 20.3699C18.2947 20.2487 18.2781 20.0362 18.3993 19.8934C18.5222 19.7506 18.7347 19.734 18.8758 19.8552L20.086 20.8895C20.2288 21.0107 20.2454 21.2232 20.1242 21.3659C20.0562 21.444 19.9615 21.4855 19.8669 21.4855ZM27.7659 11.3021C27.6879 11.3021 27.6099 11.2755 27.5468 11.2207L26.3399 10.1865C26.1971 10.0653 26.1821 9.8511 26.3033 9.70999C26.4262 9.56722 26.6387 9.55227 26.7798 9.67346L27.9867 10.7077C28.1295 10.8289 28.1444 11.0431 28.0232 11.1842C27.9552 11.2622 27.8606 11.3021 27.7659 11.3021ZM32.592 20.0162C32.4061 20.0162 32.2534 19.8652 32.2534 19.6776L32.25 16.2925C32.25 16.1066 32.4011 15.9538 32.5887 15.9538C32.7747 15.9538 32.9274 16.1049 32.9274 16.2925L32.9307 19.6776C32.9307 19.8635 32.7796 20.0162 32.592 20.0162Z" fill="#83E247"/>
<path d="M26.8406 22.5666C24.9198 22.5666 22.1051 22.2661 20.9845 21.7631C20.8135 21.6867 20.7387 21.4858 20.815 21.3165C20.8914 21.1455 21.0908 21.0675 21.2618 21.1472C22.2978 21.612 25.0094 21.8909 26.8406 21.8909C30.1509 21.8909 32.2627 21.011 32.2627 20.4051C32.2627 20.2192 32.4137 20.0664 32.6013 20.0664C32.7873 20.0664 32.94 20.2175 32.94 20.4051C32.9384 21.8245 29.8703 22.5666 26.8406 22.5666Z" fill="#83E247"/>
<path fill-rule="evenodd" clip-rule="evenodd" d="M31.0702 22.1607C32.4152 21.7347 33.0882 21.1494 33.0891 20.4048C33.0891 20.2697 33.0412 20.1542 32.9454 20.0587C32.8499 19.9636 32.7349 19.916 32.6004 19.916C32.4652 19.916 32.3499 19.9639 32.2545 20.0597C32.1593 20.1552 32.1118 20.2702 32.1118 20.4047C32.1118 20.5057 32.0067 20.6268 31.7965 20.7679C31.5461 20.9361 31.1964 21.0907 30.7471 21.2317C29.6669 21.5709 28.3644 21.7405 26.8397 21.7405C25.8551 21.7405 24.8321 21.6751 23.7704 21.5441C22.6141 21.4015 21.7987 21.2237 21.3243 21.0108C21.2007 20.9532 21.0754 20.9487 20.9484 20.9973C20.8228 21.0454 20.7325 21.1311 20.6774 21.2544C20.6221 21.377 20.6182 21.5013 20.6658 21.6272C20.7135 21.7537 20.799 21.8445 20.9222 21.8995C21.466 22.1437 22.3562 22.3445 23.5926 22.5019C24.7148 22.6448 25.7971 22.7162 26.8397 22.7162C28.4908 22.7162 29.901 22.5311 31.0702 22.1607ZM32.7891 20.4045C32.7883 21.0027 32.1851 21.4929 30.9797 21.8747C29.8399 22.2357 28.4599 22.4162 26.8397 22.4162C25.8098 22.4162 24.7401 22.3456 23.6305 22.2043C22.4236 22.0506 21.5617 21.8578 21.045 21.6259C20.9976 21.6047 20.9647 21.5698 20.9464 21.5213C20.9281 21.4728 20.9296 21.4249 20.9509 21.3778C20.9725 21.3294 21.0074 21.296 21.0557 21.2775C21.1035 21.2592 21.1508 21.2609 21.1976 21.2827C21.7021 21.5091 22.5475 21.6955 23.7337 21.8418C24.8075 21.9743 25.8428 22.0405 26.8397 22.0405C28.3951 22.0405 29.7276 21.8663 30.8371 21.5179C31.3138 21.3682 31.6893 21.2012 31.9637 21.017C32.2624 20.8164 32.4118 20.6123 32.4118 20.4047C32.4118 20.3529 32.4302 20.3085 32.467 20.2715C32.5038 20.2345 32.5483 20.216 32.6004 20.216C32.6522 20.216 32.6966 20.2344 32.7336 20.2712C32.7706 20.3081 32.7891 20.3525 32.7891 20.4045Z" fill="#83E247"/>
</g>
<mask id="mask1_15597_1983" style="mask-type:luminance" maskUnits="userSpaceOnUse" x="219" y="6" width="18" height="18">
<path d="M237 6H219V24H237V6Z" fill="white"/>
</mask>
<g mask="url(#mask1_15597_1983)">
<path d="M228.644 19.2231H228.629C227.642 19.1833 226.695 19.0654 225.893 18.8828C225.711 18.8413 225.598 18.6603 225.639 18.4777C225.681 18.2951 225.864 18.1805 226.045 18.2237C226.807 18.398 227.71 18.5093 228.658 18.5474C228.844 18.5557 228.99 18.7118 228.981 18.8994C228.975 19.0804 228.825 19.2231 228.644 19.2231ZM230.396 19.4223C230.217 19.4223 230.069 19.2829 230.059 19.1036C230.047 18.9177 230.19 18.7566 230.377 18.7467C233.236 18.579 234.759 17.7937 234.759 17.2923C234.759 17.1064 234.91 16.9537 235.097 16.9537C235.283 16.9537 235.436 17.1047 235.436 17.2923C235.436 18.5607 232.916 19.2763 230.419 19.4223H230.396ZM229.335 17.8518C228.596 17.8518 227.871 17.8087 227.178 17.7223C226.992 17.6991 226.861 17.5298 226.885 17.3455C226.908 17.1595 227.075 17.0267 227.261 17.0517C228.746 17.2359 230.422 17.2143 231.832 16.9935C232.014 16.9686 232.189 17.0915 232.219 17.2757C232.249 17.46 232.121 17.6327 231.936 17.6626C231.125 17.7871 230.25 17.8518 229.335 17.8518ZM231.999 17.6626C231.854 17.6626 232.045 17.4584 231.999 17.314C231.971 17.2243 231.894 17.0999 231.999 17.0013C232.103 16.9027 231.999 17.0013 233.279 16.6665C234.37 16.3262 234.757 15.9277 234.757 15.6903C234.757 15.1142 232.72 14.246 229.528 14.1962C229.342 14.1928 229.192 14.0385 229.195 13.8525C229.199 13.6666 229.355 13.5056 229.539 13.5205C232.469 13.567 235.434 14.3273 235.434 15.692C235.434 16.1535 235.096 16.8109 233.482 17.314C233.449 17.3223 232.032 17.6626 231.999 17.6626Z" fill="white" fill-opacity="0.4"/>
<path fill-rule="evenodd" clip-rule="evenodd" d="M231.801 17.15C230.319 17.3768 228.8 17.3935 227.242 17.2001C227.191 17.1933 227.145 17.2057 227.105 17.2374C227.064 17.2694 227.04 17.3116 227.034 17.3641C227.027 17.4152 227.04 17.4611 227.072 17.502C227.104 17.5431 227.146 17.5668 227.198 17.5733C227.884 17.6589 228.596 17.7017 229.336 17.7017C230.201 17.7017 231.026 17.6444 231.81 17.5298C231.815 17.5119 231.821 17.4925 231.828 17.4715C231.851 17.4083 231.86 17.3703 231.856 17.3576C231.853 17.3502 231.848 17.3365 231.841 17.3166C231.818 17.2566 231.805 17.2011 231.801 17.15ZM231.961 17.8105L231.96 17.8107C231.13 17.938 230.255 18.0017 229.336 18.0017C228.584 18.0017 227.859 17.9581 227.16 17.871C227.026 17.8543 226.918 17.7927 226.835 17.6863C226.752 17.5799 226.719 17.46 226.736 17.3265C226.753 17.1925 226.814 17.0841 226.92 17.0013C227.027 16.9176 227.147 16.8848 227.282 16.9028C228.829 17.0949 230.338 17.0756 231.809 16.8452C231.862 16.838 231.912 16.8382 231.96 16.8459C232.014 16.816 232.083 16.7925 232.169 16.7753C232.459 16.7169 232.816 16.6325 233.239 16.5221C233.722 16.371 234.089 16.2033 234.339 16.0189C234.518 15.8868 234.608 15.7772 234.608 15.6901C234.608 15.5965 234.507 15.4814 234.305 15.3448C234.064 15.1813 233.727 15.0292 233.294 14.8884C232.252 14.5497 230.996 14.3689 229.525 14.346C229.391 14.3436 229.277 14.2939 229.183 14.1969C229.089 14.0998 229.044 13.9841 229.046 13.8497C229.048 13.7147 229.098 13.5996 229.195 13.5042C229.295 13.4055 229.412 13.3609 229.547 13.3704C231.142 13.396 232.504 13.5957 233.633 13.9693C234.934 14.3999 235.585 14.974 235.585 15.6918C235.585 16.441 234.899 17.0294 233.527 17.457L233.523 17.4583L233.519 17.4593C232.577 17.6947 232.071 17.8124 231.999 17.8124C231.986 17.8124 231.973 17.8118 231.961 17.8105ZM232.363 17.4341C232.605 17.377 232.964 17.2888 233.442 17.1693C234.671 16.7857 235.285 16.2932 235.285 15.6918C235.285 15.1185 234.703 14.6393 233.539 14.2542C232.438 13.8898 231.104 13.6951 229.537 13.6703L229.532 13.6702L229.528 13.6698C229.482 13.6662 229.442 13.6821 229.405 13.7178C229.367 13.7559 229.347 13.8016 229.346 13.855C229.345 13.9065 229.363 13.951 229.399 13.9884C229.435 14.0259 229.479 14.0451 229.531 14.046C231.031 14.0694 232.316 14.2551 233.386 14.6031C234.401 14.9328 234.908 15.2951 234.908 15.6901C234.908 16.1071 234.38 16.4803 233.325 16.8095L233.321 16.8106L233.318 16.8114C232.918 16.9159 232.576 16.9976 232.291 17.0565C232.33 17.1133 232.355 17.1784 232.367 17.2516C232.378 17.3151 232.376 17.376 232.363 17.4341ZM230.397 19.5722H230.424L230.428 19.5719C231.815 19.4908 232.978 19.2729 233.917 18.9184C235.03 18.4982 235.587 17.9562 235.587 17.2922C235.587 17.157 235.539 17.0418 235.443 16.9463C235.347 16.8511 235.232 16.8035 235.098 16.8035C234.963 16.8035 234.847 16.8514 234.752 16.9472C234.657 17.0427 234.609 17.1577 234.609 17.2922C234.609 17.5085 234.269 17.7458 233.588 18.0042C232.748 18.3226 231.676 18.5201 230.37 18.5967C230.235 18.6039 230.122 18.658 230.032 18.7592C229.942 18.8602 229.901 18.9777 229.909 19.1118C229.917 19.2412 229.967 19.3503 230.061 19.4391C230.155 19.5278 230.267 19.5722 230.397 19.5722ZM230.415 19.2722C231.77 19.1926 232.902 18.9811 233.811 18.6377C234.795 18.2664 235.287 17.8179 235.287 17.2922C235.287 17.2401 235.268 17.1956 235.231 17.1588C235.194 17.1219 235.15 17.1035 235.098 17.1035C234.972 17.1035 234.909 17.1664 234.909 17.2922C234.909 17.6465 234.504 17.9774 233.694 18.2847C232.826 18.614 231.723 18.8178 230.386 18.8963C230.334 18.899 230.291 18.9199 230.256 18.9588C230.221 18.9975 230.206 19.043 230.209 19.0951C230.215 19.2132 230.278 19.2722 230.397 19.2722H230.415ZM229.132 18.9059L229.132 18.9047C229.137 18.77 229.095 18.6532 229.003 18.5542C228.912 18.4557 228.799 18.4034 228.664 18.3974C227.704 18.3587 226.843 18.2521 226.08 18.0776C225.949 18.0463 225.826 18.0667 225.711 18.1388C225.596 18.2107 225.524 18.3125 225.494 18.4443C225.464 18.5759 225.485 18.6987 225.556 18.8126C225.627 18.9269 225.729 18.9989 225.861 19.0289C226.688 19.2172 227.609 19.3319 228.624 19.3728L228.627 19.373H228.645C228.776 19.373 228.888 19.3277 228.983 19.2372C229.077 19.1467 229.127 19.0362 229.132 18.9059ZM228.652 18.6972C228.778 18.7028 228.838 18.7679 228.832 18.8926L228.832 18.8937C228.828 19.0132 228.765 19.0729 228.645 19.0729H228.633C227.638 19.0326 226.736 18.9205 225.927 18.7364C225.867 18.7226 225.825 18.6971 225.801 18.6599C225.777 18.6222 225.772 18.5725 225.786 18.5108C225.798 18.46 225.826 18.4207 225.87 18.393C225.914 18.3654 225.961 18.3576 226.01 18.3695C226.793 18.5485 227.674 18.6577 228.652 18.6972Z" fill="white" fill-opacity="0.4"/>
<path d="M222.678 21.0664C222.451 21.0664 222.245 21.0034 222.074 20.8539C221.933 20.7311 221.918 20.5186 222.039 20.3775C222.162 20.2364 222.374 20.2214 222.515 20.3426C222.701 20.5036 223.505 20.3028 224.876 19.0892C225.676 18.3853 226.516 17.4739 227.307 16.4546C229.591 13.5011 230.399 11.0574 229.953 10.6722C229.812 10.551 229.795 10.3369 229.916 10.1958C230.039 10.0546 230.252 10.038 230.393 10.1592C231.43 11.0524 229.895 14.21 227.839 16.8679C227.023 17.9221 226.153 18.8651 225.321 19.5955C224.64 20.2015 223.516 21.0664 222.678 21.0664Z" fill="white" fill-opacity="0.4"/>
<path fill-rule="evenodd" clip-rule="evenodd" d="M225.42 19.7081L225.421 19.7074C226.273 18.959 227.118 18.043 227.958 16.9595C229.075 15.5145 229.894 14.1644 230.414 12.909C231.011 11.4697 231.036 10.5151 230.49 10.0453C230.388 9.95766 230.27 9.91902 230.136 9.92937C230.002 9.93968 229.891 9.99583 229.802 10.0978C229.715 10.1998 229.676 10.3182 229.686 10.4528C229.697 10.5872 229.753 10.6982 229.855 10.7856C229.927 10.8478 229.942 11.0195 229.9 11.3007C229.851 11.6344 229.723 12.0481 229.515 12.542C229.018 13.7254 228.242 14.9989 227.188 16.3624C226.387 17.396 225.583 18.2674 224.776 18.9767C224.168 19.5153 223.638 19.888 223.188 20.0949C222.87 20.241 222.679 20.2856 222.613 20.2286C222.511 20.1412 222.393 20.1023 222.259 20.1119C222.125 20.1216 222.014 20.1775 221.925 20.2795C221.837 20.3815 221.798 20.4994 221.808 20.6332C221.818 20.7672 221.873 20.8784 221.975 20.9667C222.165 21.1331 222.4 21.2162 222.678 21.2162C223.376 21.2162 224.29 20.7135 225.42 19.7081ZM227.721 16.776C226.893 17.8445 226.06 18.7468 225.222 19.4827L225.221 19.4833C224.148 20.4386 223.3 20.9162 222.678 20.9162C222.475 20.9162 222.306 20.8578 222.172 20.7408C222.078 20.6584 222.071 20.5698 222.152 20.475C222.234 20.3811 222.323 20.3748 222.417 20.4562C222.58 20.597 222.879 20.5674 223.314 20.3675C223.791 20.1483 224.345 19.7595 224.975 19.2013C225.795 18.4799 226.612 17.5949 227.425 16.5463C228.496 15.1618 229.285 13.8658 229.792 12.6582C230.269 11.5214 230.356 10.8215 230.051 10.5584C230.003 10.5173 229.977 10.4746 229.974 10.4302C229.971 10.3862 229.989 10.3406 230.03 10.2933C230.112 10.1987 230.201 10.1919 230.295 10.2729C230.731 10.6481 230.678 11.4886 230.137 12.7942C229.627 14.0249 228.822 15.3521 227.721 16.776Z" fill="white" fill-opacity="0.4"/>
<path d="M221.514 20.0505C221.21 20.0505 221.012 19.9393 220.896 19.838C219.857 18.9432 221.394 15.7872 223.45 13.1326C225.302 10.742 227.319 9.05692 228.468 8.94237C228.845 8.90418 229.082 9.03369 229.217 9.14824C229.71 9.57158 229.67 10.4847 229.092 11.8626C229.021 12.0353 228.823 12.1166 228.651 12.0436C228.48 11.9722 228.397 11.7729 228.47 11.6019C229.008 10.3186 228.906 9.77247 228.777 9.66124C228.729 9.61807 228.647 9.60477 228.536 9.61473C227.724 9.69608 225.902 11.0724 223.984 13.5477C221.698 16.4978 220.89 18.9415 221.336 19.3267C221.384 19.3682 221.466 19.3831 221.577 19.3715C222.389 19.2902 224.213 17.9122 226.126 15.4386C226.634 14.7845 227.094 14.1187 227.495 13.4613C227.593 13.3003 227.801 13.2522 227.96 13.3484C228.12 13.4464 228.171 13.6539 228.073 13.8133C227.658 14.4923 227.183 15.1796 226.66 15.8536C224.813 18.2426 222.797 19.9277 221.647 20.0439C221.6 20.0489 221.557 20.0505 221.514 20.0505Z" fill="white" fill-opacity="0.4"/>
<path fill-rule="evenodd" clip-rule="evenodd" d="M221.656 20.1441C222.251 20.0837 223.018 19.6618 223.955 18.8784C224.882 18.1036 225.81 17.1159 226.739 15.9156C227.261 15.2418 227.734 14.5588 228.158 13.8663C228.221 13.7631 228.238 13.6526 228.21 13.5348C228.181 13.4176 228.115 13.3272 228.011 13.2635C227.908 13.2011 227.798 13.1838 227.681 13.2118C227.563 13.2401 227.472 13.3061 227.409 13.4099C227.003 14.0752 226.548 14.7313 226.046 15.3781C225.146 16.5424 224.255 17.4917 223.374 18.226C222.587 18.8819 221.984 19.2308 221.566 19.2728C221.482 19.2815 221.427 19.2745 221.401 19.2517C221.315 19.1775 221.294 18.9908 221.338 18.6914C221.388 18.3536 221.518 17.936 221.727 17.4385C222.226 16.2512 223.004 14.9749 224.062 13.6096C224.965 12.4443 225.857 11.4948 226.738 10.761C227.525 10.1055 228.127 9.75685 228.544 9.71504C228.63 9.70737 228.686 9.71495 228.711 9.73778C228.773 9.7908 228.794 9.93973 228.773 10.1845C228.743 10.5449 228.611 11.0045 228.377 11.5634C228.33 11.6744 228.329 11.7862 228.376 11.8989C228.422 12.0109 228.5 12.0901 228.611 12.1364C228.723 12.1837 228.835 12.1844 228.947 12.1384C229.059 12.0925 229.138 12.0137 229.184 11.902C229.783 10.4742 229.815 9.53119 229.281 9.07283C229.062 8.88654 228.788 8.81012 228.458 8.84358C227.863 8.90288 227.096 9.32433 226.158 10.1079C225.23 10.8827 224.301 11.8707 223.37 13.0721C222.255 14.5122 221.438 15.8574 220.919 17.1076C220.332 18.524 220.302 19.4595 220.83 19.9141C221.011 20.0721 221.239 20.1512 221.513 20.1512C221.564 20.1512 221.611 20.1488 221.656 20.1441ZM223.827 18.725C222.921 19.4823 222.191 19.889 221.636 19.9451C221.598 19.9491 221.557 19.9512 221.513 19.9512C221.289 19.9512 221.105 19.8885 220.961 19.7633C220.506 19.3712 220.553 18.5115 221.104 17.1842C221.616 15.9505 222.424 14.6206 223.528 13.1945C224.45 12.0046 225.369 11.0269 226.286 10.2614C227.193 9.50409 227.924 9.09782 228.477 9.04259C228.751 9.01483 228.976 9.07568 229.151 9.22508C229.611 9.61989 229.561 10.4864 228.999 11.8246C228.974 11.8857 228.931 11.9286 228.871 11.9534C228.81 11.9783 228.75 11.9778 228.689 11.9522C228.629 11.9269 228.586 11.8838 228.561 11.8227C228.535 11.7618 228.536 11.7015 228.561 11.6419C228.804 11.0627 228.941 10.5824 228.973 10.201C228.998 9.8884 228.955 9.68344 228.841 9.58607C228.775 9.52642 228.67 9.50302 228.527 9.51585C228.067 9.56186 227.429 9.9257 226.61 10.6073C225.718 11.3504 224.816 12.3103 223.904 13.4871C222.836 14.8662 222.048 16.1576 221.542 17.361C221.074 18.4751 220.983 19.1558 221.27 19.4031C221.34 19.4635 221.446 19.4864 221.587 19.4717C222.045 19.4257 222.683 19.0617 223.502 18.3797C224.394 17.636 225.295 16.6763 226.204 15.5004C226.711 14.848 227.169 14.1859 227.58 13.5142C227.662 13.3789 227.771 13.3524 227.908 13.4347C228.043 13.5181 228.07 13.627 227.987 13.7616C227.568 14.448 227.099 15.1251 226.581 15.793C225.661 16.9821 224.743 17.9594 223.827 18.725Z" fill="white" fill-opacity="0.4"/>
<path d="M222.367 20.9855C222.289 20.9855 222.211 20.9589 222.148 20.9041L220.937 19.8699C220.795 19.7487 220.778 19.5362 220.899 19.3934C221.022 19.2506 221.235 19.234 221.376 19.3552L222.586 20.3895C222.729 20.5107 222.745 20.7232 222.624 20.8659C222.556 20.944 222.462 20.9855 222.367 20.9855ZM230.266 10.8021C230.188 10.8021 230.11 10.7755 230.047 10.7207L228.84 9.68646C228.697 9.56527 228.682 9.3511 228.803 9.20999C228.926 9.06722 229.139 9.05227 229.28 9.17346L230.487 10.2077C230.629 10.3289 230.644 10.5431 230.523 10.6842C230.455 10.7622 230.361 10.8021 230.266 10.8021ZM235.092 19.5162C234.906 19.5162 234.753 19.3652 234.753 19.1776L234.75 15.7925C234.75 15.6066 234.901 15.4538 235.089 15.4538C235.275 15.4538 235.427 15.6049 235.427 15.7925L235.431 19.1776C235.431 19.3635 235.28 19.5162 235.092 19.5162Z" fill="white" fill-opacity="0.4"/>
<path d="M229.341 22.0666C227.42 22.0666 224.605 21.7661 223.484 21.2631C223.313 21.1867 223.239 20.9858 223.315 20.8165C223.391 20.6455 223.591 20.5675 223.762 20.6472C224.798 21.112 227.509 21.3909 229.341 21.3909C232.651 21.3909 234.763 20.511 234.763 19.9051C234.763 19.7192 234.914 19.5664 235.101 19.5664C235.287 19.5664 235.44 19.7175 235.44 19.9051C235.438 21.3245 232.37 22.0666 229.341 22.0666Z" fill="white" fill-opacity="0.4"/>
<path fill-rule="evenodd" clip-rule="evenodd" d="M233.57 21.6607C234.915 21.2347 235.588 20.6494 235.589 19.9048C235.589 19.7697 235.541 19.6542 235.445 19.5587C235.35 19.4636 235.235 19.416 235.1 19.416C234.965 19.416 234.85 19.4639 234.754 19.5597C234.659 19.6552 234.612 19.7702 234.612 19.9047C234.612 20.0057 234.507 20.1268 234.296 20.2679C234.046 20.4361 233.696 20.5907 233.247 20.7317C232.167 21.0709 230.864 21.2405 229.34 21.2405C228.355 21.2405 227.332 21.1751 226.27 21.0441C225.114 20.9015 224.299 20.7237 223.824 20.5108C223.701 20.4532 223.575 20.4487 223.448 20.4973C223.323 20.5454 223.232 20.6311 223.177 20.7544C223.122 20.877 223.118 21.0013 223.166 21.1272C223.213 21.2537 223.299 21.3445 223.422 21.3995C223.966 21.6437 224.856 21.8445 226.093 22.0019C227.215 22.1448 228.297 22.2162 229.34 22.2162C230.991 22.2162 232.401 22.0311 233.57 21.6607ZM235.289 19.9045C235.288 20.5027 234.685 20.9929 233.48 21.3747C232.34 21.7357 230.96 21.9162 229.34 21.9162C228.31 21.9162 227.24 21.8456 226.13 21.7043C224.924 21.5506 224.062 21.3578 223.545 21.1259C223.498 21.1047 223.465 21.0698 223.446 21.0213C223.428 20.9728 223.43 20.9249 223.451 20.8778C223.472 20.8294 223.507 20.796 223.556 20.7775C223.604 20.7592 223.651 20.7609 223.698 20.7827C224.202 21.0091 225.047 21.1955 226.234 21.3418C227.308 21.4743 228.343 21.5405 229.34 21.5405C230.895 21.5405 232.228 21.3663 233.337 21.0179C233.814 20.8682 234.189 20.7012 234.464 20.517C234.762 20.3164 234.912 20.1123 234.912 19.9047C234.912 19.8529 234.93 19.8085 234.967 19.7715C235.004 19.7345 235.048 19.716 235.1 19.716C235.152 19.716 235.197 19.7344 235.234 19.7712C235.271 19.8081 235.289 19.8525 235.289 19.9045Z" fill="white" fill-opacity="0.4"/>
</g>
<defs>
<linearGradient id="paint0_linear_15597_1983" x1="90.3184" y1="15.5" x2="406" y2="15.5" gradientUnits="userSpaceOnUse">
<stop stop-color="#7A7A7A"/>
<stop offset="1" stop-color="#009910"/>
</linearGradient>
<linearGradient id="paint1_linear_15597_1983" x1="2" y1="14.9821" x2="207" y2="14.9821" gradientUnits="userSpaceOnUse">
<stop stop-color="#D9D9D9" stop-opacity="0"/>
<stop offset="1" stop-color="#83E247" stop-opacity="0.6"/>
</linearGradient>
</defs>
</svg>
