<svg width="119" height="34" viewBox="0 0 119 34" fill="none" xmlns="http://www.w3.org/2000/svg">
<path d="M118.011 7.29956V26.0251H114.255V7.29956H118.011Z" fill="#FFF9DC"/>
<path d="M111.592 7.29956V10.3311H103.785V15.1331H109.768V18.111H103.785V26.0251H100.029V7.29956H111.592Z" fill="#FFF9DC"/>
<path d="M89.5058 10.331V15.0258H95.8103V18.0036H89.5058V22.9667H96.6151V26.025H85.75V7.27271H96.6151V10.331H89.5058Z" fill="#FFF9DC"/>
<path d="M82.0394 26.025H78.2835L69.7793 13.1747V26.025H66.0234V7.27271H69.7793L78.2835 20.1498V7.27271H82.0394V26.025Z" fill="#FFF9DC"/>
<path d="M53.652 26.2128C51.8993 26.2128 50.2897 25.8015 48.8231 24.9788C47.3566 24.156 46.194 23.0204 45.3356 21.5717C44.4771 20.1051 44.0479 18.4508 44.0479 16.6086C44.0479 14.7844 44.4771 13.1479 45.3356 11.6992C46.194 10.2326 47.3566 9.08801 48.8231 8.26531C50.2897 7.4426 51.8993 7.03125 53.652 7.03125C55.4227 7.03125 57.0323 7.4426 58.481 8.26531C59.9475 9.08801 61.1011 10.2326 61.9417 11.6992C62.8002 13.1479 63.2294 14.7844 63.2294 16.6086C63.2294 18.4508 62.8002 20.1051 61.9417 21.5717C61.1011 23.0204 59.9475 24.156 58.481 24.9788C57.0144 25.8015 55.4048 26.2128 53.652 26.2128ZM53.652 22.8594C54.7788 22.8594 55.7714 22.609 56.6299 22.1082C57.4884 21.5896 58.159 20.8563 58.6419 19.9084C59.1248 18.9605 59.3663 17.8606 59.3663 16.6086C59.3663 15.3567 59.1248 14.2657 58.6419 13.3357C58.159 12.3878 57.4884 11.6634 56.6299 11.1627C55.7714 10.6619 54.7788 10.4115 53.652 10.4115C52.5253 10.4115 51.5237 10.6619 50.6474 11.1627C49.7889 11.6634 49.1182 12.3878 48.6353 13.3357C48.1524 14.2657 47.911 15.3567 47.911 16.6086C47.911 17.8606 48.1524 18.9605 48.6353 19.9084C49.1182 20.8563 49.7889 21.5896 50.6474 22.1082C51.5237 22.609 52.5253 22.8594 53.652 22.8594Z" fill="#FFF9DC"/>
<path d="M35.0762 26.2128C33.7706 26.2128 32.5902 25.9892 31.535 25.5421C30.4977 25.095 29.675 24.4511 29.0669 23.6106C28.4588 22.77 28.1458 21.7774 28.1279 20.6327H32.152C32.2057 21.4018 32.474 22.0099 32.9569 22.457C33.4576 22.9041 34.1373 23.1277 34.9957 23.1277C35.8721 23.1277 36.5607 22.922 37.0614 22.5106C37.5622 22.0814 37.8126 21.527 37.8126 20.8473C37.8126 20.2929 37.6427 19.8368 37.3029 19.4791C36.9631 19.1214 36.5338 18.8442 36.0152 18.6475C35.5144 18.4329 34.8169 18.2004 33.9226 17.95C32.7065 17.5923 31.7139 17.2435 30.9448 16.9037C30.1936 16.546 29.5408 16.0184 28.9864 15.3209C28.4499 14.6055 28.1816 13.6576 28.1816 12.4772C28.1816 11.3683 28.4588 10.4026 29.0132 9.57985C29.5677 8.75714 30.3457 8.13117 31.3472 7.70193C32.3488 7.25481 33.4934 7.03125 34.7811 7.03125C36.7127 7.03125 38.2776 7.5052 39.4759 8.4531C40.6921 9.38311 41.3628 10.6887 41.488 12.3699H37.3565C37.3208 11.726 37.0436 11.1984 36.5249 10.7871C36.0241 10.3578 35.3534 10.1432 34.5128 10.1432C33.7796 10.1432 33.1894 10.331 32.7422 10.7066C32.313 11.0822 32.0984 11.6277 32.0984 12.3431C32.0984 12.8438 32.2593 13.2641 32.5813 13.604C32.9211 13.9259 33.3324 14.1942 33.8153 14.4088C34.3161 14.6055 35.0136 14.838 35.9079 15.1063C37.124 15.464 38.1166 15.8217 38.8857 16.1794C39.6547 16.5371 40.3165 17.0736 40.8709 17.789C41.4254 18.5044 41.7026 19.4434 41.7026 20.6059C41.7026 21.6074 41.4432 22.5375 40.9246 23.3959C40.4059 24.2544 39.6458 24.943 38.6443 25.4616C37.6427 25.9624 36.4534 26.2128 35.0762 26.2128Z" fill="#FFF9DC"/>
<path d="M9.70542 4.89719C9.82892 4.77528 9.99548 4.70692 10.169 4.70692L19.0352 4.70691C19.6256 4.70691 19.9189 5.42269 19.4983 5.83697L5.92897 19.204C5.66939 19.4598 5.2517 19.4567 4.99589 19.1972L0.636653 14.7755C0.380886 14.516 0.383732 14.0984 0.643009 13.8425L9.70542 4.89719Z" fill="#0DAB0C"/>
<path d="M10.2643 28.3853C10.1408 28.5072 9.97425 28.5755 9.80071 28.5755L0.934505 28.5756C0.344175 28.5756 0.0508286 27.8598 0.471378 27.4455L14.0408 14.0784C14.3003 13.8227 14.718 13.8258 14.9738 14.0852L19.3331 18.507C19.5888 18.7665 19.586 19.1841 19.3267 19.44L10.2643 28.3853Z" fill="#FFF9DC"/>
</svg>
